HIERARCHY
ROOT hips
{
  OFFSET 0 10.6860622 2.3727825e-15
  CHANNELS 6 Xposition Yposition Zposition Yrotation Xrotation Zrotation
  JOINT leftUpperLeg
  {
    OFFSET 0.6642549969 -0.9402397400000004 0
    CHANNELS 3 Yrotation Xrotation Zrotation
    JOINT leftLowerLeg
    {
      OFFSET 0 -3.997221335632195 0
      CHANNELS 3 Yrotation Xrotation Zrotation
      JOINT leftFoot
      {
        OFFSET -0.13777839790000004 -4.6145792000000005 -0.22186036399999998
        CHANNELS 3 Yrotation Xrotation Zrotation
        JOINT leftToes
        {
          OFFSET -0.03777410834999995 -0.9130806927000008 0.85230013
          CHANNELS 3 Yrotation Xrotation Zrotation
          End Site
          {
            OFFSET -0.03777410834999995 -0.9130806927000008 0.85230013
          }
        }
      }
    }
  }
  JOINT rightUpperLeg
  {
    OFFSET -0.6642778626 -0.9402397400000004 0
    CHANNELS 3 Yrotation Xrotation Zrotation
    JOINT rightLowerLeg
    {
      OFFSET 0 -3.997221452859387 0
      CHANNELS 3 Yrotation Xrotation Zrotation
      JOINT rightFoot
      {
        OFFSET 0.1377926176 -4.6145792000000005 -0.22185782299999995
        CHANNELS 3 Yrotation Xrotation Zrotation
        JOINT rightToes
        {
          OFFSET 0.037780746850000047 -0.9130806927000008 0.85230167
          CHANNELS 3 Yrotation Xrotation Zrotation
          End Site
          {
            OFFSET 0.037780746850000047 -0.9130806927000008 0.85230167
          }
        }
      }
    }
  }
  JOINT spine
  {
    OFFSET 0 0.13988381660000015 0
    CHANNELS 3 Yrotation Xrotation Zrotation
    JOINT chest
    {
      OFFSET 0 0.6191039003973773 0
      CHANNELS 3 Yrotation Xrotation Zrotation
      JOINT upperChest
      {
        OFFSET 0 0.9855186130586943 0
        CHANNELS 3 Yrotation Xrotation Zrotation
        JOINT leftShoulder
        {
          OFFSET 0.1807663869 1.5087829790000005 0
          CHANNELS 3 Yrotation Xrotation Zrotation
          JOINT leftUpperArm
          {
            OFFSET 0.5985063006419806 0 0
            CHANNELS 3 Yrotation Xrotation Zrotation
            JOINT leftLowerArm
            {
              OFFSET 2.2993332369501065 0 0
              CHANNELS 3 Yrotation Xrotation Zrotation
              JOINT leftHand
              {
                OFFSET 2.395047042602395 0 0
                CHANNELS 3 Yrotation Xrotation Zrotation
                JOINT leftIndexProximal
                {
                  OFFSET 0.5766295810000004 0.04556643899499946 0.17265095988184
                  CHANNELS 3 Yrotation Xrotation Zrotation
                  JOINT leftIndexIntermediate
                  {
                    OFFSET 0.2957229000000008 -0.019352197700001517 -0.007932640616999987
                    CHANNELS 3 Yrotation Xrotation Zrotation
                    JOINT leftIndexDistal
                    {
                      OFFSET 0.19008243099999922 -0.012484908149998475 -0.002786250786000012
                      CHANNELS 3 Yrotation Xrotation Zrotation
                      End Site
                      {
                        OFFSET 0.19008243099999922 -0.012484908149998475 -0.002786250786000012
                      }
                    }
                  }
                }
                JOINT leftMiddleProximal
                {
                  OFFSET 0.5834975091000001 0.0524350405149987 0.02204081888183999
                  CHANNELS 3 Yrotation Xrotation Zrotation
                  JOINT leftMiddleIntermediate
                  {
                    OFFSET 0.33880573540000003 -0.019871473270000717 -0.00000971183179999946
                    CHANNELS 3 Yrotation Xrotation Zrotation
                    JOINT leftMiddleDistal
                    {
                      OFFSET 0.20676022730000088 -0.012221336379999448 0.0001471936708000235
                      CHANNELS 3 Yrotation Xrotation Zrotation
                      End Site
                      {
                        OFFSET 0.20676022730000088 -0.012221336379999448 0.0001471936708000235
                      }
                    }
                  }
                }
                JOINT leftLittleProximal
                {
                  OFFSET 0.5344154683999995 -0.012880921405001189 -0.24414037221816004
                  CHANNELS 3 Yrotation Xrotation Zrotation
                  JOINT leftLittleIntermediate
                  {
                    OFFSET 0.21758961730000093 -0.011650919939999227 0.011893592810000034
                    CHANNELS 3 Yrotation Xrotation Zrotation
                    JOINT leftLittleDistal
                    {
                      OFFSET 0.1475273964999999 -0.008152365682999818 0.006001092492999946
                      CHANNELS 3 Yrotation Xrotation Zrotation
                      End Site
                      {
                        OFFSET 0.1475273964999999 -0.008152365682999818 0.006001092492999946
                      }
                    }
                  }
                }
                JOINT leftRingProximal
                {
                  OFFSET 0.5799399463000003 0.026911854694997794 -0.12150566991816003
                  CHANNELS 3 Yrotation Xrotation Zrotation
                  JOINT leftRingIntermediate
                  {
                    OFFSET 0.26167887460000006 -0.013480186499999602 0.010996293000000053
                    CHANNELS 3 Yrotation Xrotation Zrotation
                    JOINT leftRingDistal
                    {
                      OFFSET 0.17667108799999987 -0.008990287899999228 0.0055541023999999065
                      CHANNELS 3 Yrotation Xrotation Zrotation
                      End Site
                      {
                        OFFSET 0.17667108799999987 -0.008990287899999228 0.0055541023999999065
                      }
                    }
                  }
                }
                JOINT leftThumbProximal
                {
                  OFFSET 0.11018806699999972 -0.09448718900500053 0.17047963138184
                  CHANNELS 3 Yrotation Xrotation Zrotation
                  JOINT leftThumbIntermediate
                  {
                    OFFSET 0.31062601459999983 -0.08126270900000132 0.15443142000000007
                    CHANNELS 3 Yrotation Xrotation Zrotation
                    JOINT leftThumbDistal
                    {
                      OFFSET 0.21627175790000086 -0.08833193599999878 0.018771167799999988
                      CHANNELS 3 Yrotation Xrotation Zrotation
                      End Site
                      {
                        OFFSET 0.21627175790000086 -0.08833193599999878 0.018771167799999988
                      }
                    }
                  }
                }
              }
            }
          }
        }
        JOINT neck
        {
          OFFSET 0 1.5463305265074576 0
          CHANNELS 3 Yrotation Xrotation Zrotation
          JOINT head
          {
            OFFSET 0 0.8456443600000344 0
            CHANNELS 3 Yrotation Xrotation Zrotation
            JOINT leftEye
            {
              OFFSET 0.30408573140000006 0.5104519199999995 0.1276382305
              CHANNELS 3 Yrotation Xrotation Zrotation
              End Site
              {
                OFFSET 0.30408573140000006 0.5104519199999995 0.1276382305
              }
            }
            JOINT rightEye
            {
              OFFSET -0.30409491089999996 0.5104519199999995 0.1276379445
              CHANNELS 3 Yrotation Xrotation Zrotation
              End Site
              {
                OFFSET -0.30409491089999996 0.5104519199999995 0.1276379445
              }
            }
            JOINT jaw
            {
              OFFSET -3.155239131000001e-7 -0.11984121820000082 0.60178107
              CHANNELS 3 Yrotation Xrotation Zrotation
              End Site
              {
                OFFSET -3.155239131000001e-7 -0.11984121820000082 0.60178107
              }
            }
          }
        }
        JOINT rightShoulder
        {
          OFFSET -0.1807303465 1.5087829790000005 0
          CHANNELS 3 Yrotation Xrotation Zrotation
          JOINT rightUpperArm
          {
            OFFSET -0.5985063796536958 0 0
            CHANNELS 3 Yrotation Xrotation Zrotation
            JOINT rightLowerArm
            {
              OFFSET -2.2993322059002854 0 0
              CHANNELS 3 Yrotation Xrotation Zrotation
              JOINT rightHand
              {
                OFFSET -2.395045314457259 0 0
                CHANNELS 3 Yrotation Xrotation Zrotation
                JOINT rightIndexProximal
                {
                  OFFSET -0.5764487688300002 0.0441371204405987 0.17361932004999997
                  CHANNELS 3 Yrotation Xrotation Zrotation
                  JOINT rightIndexIntermediate
                  {
                    OFFSET -0.29573011380000047 -0.01934826376999843 -0.007698921482999974
                    CHANNELS 3 Yrotation Xrotation Zrotation
                    JOINT rightIndexDistal
                    {
                      OFFSET -0.19008373999999884 -0.012503266380000655 -0.0026365778999999897
                      CHANNELS 3 Yrotation Xrotation Zrotation
                      End Site
                      {
                        OFFSET -0.19008373999999884 -0.012503266380000655 -0.0026365778999999897
                      }
                    }
                  }
                }
                JOINT rightMiddleProximal
                {
                  OFFSET -0.5834852037300005 0.05211639405060153 0.02307162440000001
                  CHANNELS 3 Yrotation Xrotation Zrotation
                  JOINT rightMiddleIntermediate
                  {
                    OFFSET -0.33880114510000003 -0.019952774050000954 0.0002455003561999819
                    CHANNELS 3 Yrotation Xrotation Zrotation
                    JOINT rightMiddleDistal
                    {
                      OFFSET -0.20675694929999955 -0.012273788999999091 0.00030209124000002766
                      CHANNELS 3 Yrotation Xrotation Zrotation
                      End Site
                      {
                        OFFSET -0.20675694929999955 -0.012273788999999091 0.00030209124000002766
                      }
                    }
                  }
                }
                JOINT rightLittleProximal
                {
                  OFFSET -0.5346811737299992 -0.011214256288399227 -0.24363941305000003
                  CHANNELS 3 Yrotation Xrotation Zrotation
                  JOINT rightLittleIntermediate
                  {
                    OFFSET -0.21757715980000092 -0.011771559690000988 0.01201554387
                    CHANNELS 3 Yrotation Xrotation Zrotation
                    JOINT rightLittleDistal
                    {
                      OFFSET -0.1475201849000004 -0.00822055339600003 0.006082065407000015
                      CHANNELS 3 Yrotation Xrotation Zrotation
                      End Site
                      {
                        OFFSET -0.1475201849000004 -0.00822055339600003 0.006082065407000015
                      }
                    }
                  }
                }
                JOINT rightRingProximal
                {
                  OFFSET -0.5800810755299999 0.027657985680600072 -0.12066365025000003
                  CHANNELS 3 Yrotation Xrotation Zrotation
                  JOINT rightRingIntermediate
                  {
                    OFFSET -0.26166445029999974 -0.013623118409999302 0.011164098990000045
                    CHANNELS 3 Yrotation Xrotation Zrotation
                    JOINT rightRingDistal
                    {
                      OFFSET -0.17666387530000027 -0.009072900100000503 0.005668185599999959
                      CHANNELS 3 Yrotation Xrotation Zrotation
                      End Site
                      {
                        OFFSET -0.17666387530000027 -0.009072900100000503 0.005668185599999959
                      }
                    }
                  }
                }
                JOINT rightThumbProximal
                {
                  OFFSET -0.10997596379000074 -0.09577489355940072 0.16989765924999997
                  CHANNELS 3 Yrotation Xrotation Zrotation
                  JOINT rightThumbIntermediate
                  {
                    OFFSET -0.31036620999999986 -0.08229339117999834 0.15440884469999996
                    CHANNELS 3 Yrotation Xrotation Zrotation
                    JOINT rightThumbDistal
                    {
                      OFFSET -0.21631306399999906 -0.08825326400000111 0.018656797720000014
                      CHANNELS 3 Yrotation Xrotation Zrotation
                      End Site
                      {
                        OFFSET -0.21631306399999906 -0.08825326400000111 0.018656797720000014
                      }
                    }
                  }
                }
              }
            }
          }
        }
      }
    }
  }
}
MOTION
Frames: 4
Frame Time: 0.03333333333333333
-0.09710464626550674 -6.225830895831299 -0.39569348096847534 -0.9167834637777622 -35.334695848750115 13.366371466178 43.22073960811086 -65.20082365933872 -30.67798066862671 87.895225433573 80.58165370880721 85.75410101679071 0.68760590644366 15.045668398301512 12.409870468281696 -0.02944088571396097 -0.14456380189108697 -0.2499988373931917 27.729756001808767 -74.68441042466003 -30.37431051526614 33.92469839923316 79.12563139071833 35.630192282926835 -14.85092201227555 13.32386338059582 -3.2831360178925424 -0.049911453759650705 -13.014334935441335 0.08043939857620098 -1.1000159208156821 12.434326505118579 -1.0833997806340594 -5.455768007335514 49.6342901150102 -5.258981500835008 0 0 0 -13.457924828570311 0.8325879532632096 -14.905879325175817 4.339379951253595 -7.638463912227231 -55.34913698313094 -118.85868642650355 6.230443015185309 1.9142104626064287 -9.538743090416878 63.01984394193402 -1.296110419038927 -1.4644842468842454 -6.936966686936822 -20.758194140782983 -1.5919503596207771 -0.9954166365982176 -34.55099381024019 0.000003995213917131341 -4.364261971708168e-7 -0.000011205311743624915 2.2334765721351704 2.176764457984594 -15.877738829500736 -2.026957458259652 -0.570424507467836 -23.650449044821368 1.139979627027678e-10 6.3611093629270335e-15 -1.43444452663829e-12 3.906602866897465 -2.4148281509562257 -1.31271617726084 -6.003055879510447 -0.7179730572908999 -26.641173594523792 4.171116073730225e-11 5.950788745874541e-26 -1.634838641478621e-13 5.4935836336081065 -0.6585032163564584 -8.597415183654233 -2.495400793972175 -0.37967880073759463 -22.75610197143513 0 0 0 10.90950275083849 -14.248743991149041 -16.63879789020199 0.5974789749020248 10.483150749226219 32.6289371608062 0.000006459131920876966 0.000011370774681263094 0.00000778420168649405 12.495611904819619 19.23462820690281 -8.076723770540621 41.94609470061529 -14.073339446192566 -6.914929779620471 0 0 0 0 0 0 0 0 0 10.58284827071244 0.9458700566463244 -5.686494448892888 13.47825027406568 -9.5901512765681 74.77960040964021 98.48708968061547 7.646951542286229 2.980115258192699 16.22418374536301 56.88242620951365 -23.28939194377428 -2.1467947258481974 -8.499019628081388 44.22267450505271 1.8228290114382903 -1.5671732434038252 45.47712627470883 3.933694872703174e-10 3.1805546814635168e-15 -4.874754472204794e-12 3.571636445540386 -2.448508473652303 25.079135858831567 3.2582593067034424 -1.5957377297410964 43.50016729033281 1.215836204053751e-9 -3.180554491887685e-15 -1.6036856771618462e-11 2.0417313930486642 1.4448720814012599 5.48765708042834 8.015375502210619 -1.372360512444205 35.85144796353281 6.03787035398302e-7 0.0000020090840283003914 -0.000003569371740829563 2.954996841718286 -1.9311717425271884 12.59825109931002 4.588733779590143 -1.501836658482723 42.181326517023386 -4.3803240153668535e-10 2.0219334966109398e-23 5.2894833502657416e-12 -3.3740352692576363 -12.279883217688466 8.20376509661279 -21.585346361826616 -14.91154946937889 11.105944283248792 -0.000014697651569624505 0.000004285399380492598 -0.00003094952591566483
-0.09436593949794769 -6.230910642077637 -0.4016304016113281 -0.3694816223881875 -35.449812013167616 11.946173737535528 42.516562360979115 -65.87583934254019 -29.488286441709292 88.88860315915822 80.50315443853755 86.76137950821452 0.07368948924821518 15.086958965929426 13.011784917712394 -0.02658824516548737 -0.0000011219480427731166 0.00034515813708838527 27.93063799124991 -74.38836625412915 -31.539792113787986 23.887072463954123 78.48113102316205 25.68767342815767 -9.658515069689573 14.64800714226198 -0.8303624345174571 -0.0716683554532042 -15.04705464121477 0.1101545678111611 -0.8321668532708362 12.151302404847101 -1.0091191060477585 -5.223054715402047 48.47545829584997 -5.821613976845311 0 0 0 -11.193822493340436 0.8803016227662864 -15.697265077559406 1.9219197811177988 -6.958453008311199 -54.17200426958948 -116.6862603314748 3.932624260927289 0.8409899565875922 -14.28044573883916 69.84469052686602 -7.851795628097621 -1.3373439479443892 -6.903518902971062 -19.967204511734728 -1.5922738401260037 -0.995217143630274 -34.54201785250111 0.000003995213917131341 -4.364261971708168e-7 -0.000011205311743624915 2.436573088818878 2.2422012862856406 -15.108295124870724 -2.0258962328913035 -0.569977908374569 -23.637899536335823 1.139979627027678e-10 6.3611093629270335e-15 -1.43444452663829e-12 3.9873380517502355 -2.2129271718148673 -0.4378205453589372 -5.915738951103784 -0.656983505850975 -25.97829289705603 4.171116073730225e-11 5.950788745874541e-26 -1.634838641478621e-13 5.566909072918789 -0.6569701113963674 -7.76498543581475 -2.460329531483024 -0.3588101649997892 -22.34629528198136 0 0 0 10.820205999904221 -14.177538425760751 -16.779290046385526 0.7206660930633648 10.363277569020314 33.13438499109411 0.000006459131920876966 0.000011370774681263094 0.00000778420168649405 12.570332739004396 18.79734782071662 -7.082512969614552 41.84674471723035 -14.320018736779959 -6.705347358629462 0 0 0 0 0 0 0 0 0 9.337784714651994 0.7989632586183913 -4.191209997430045 15.886840755645146 -8.47359419995399 73.43401362463722 97.36427945629318 8.588486478962475 2.4620339941852283 13.650717152182994 58.87313553104486 -25.620295187393978 -2.146815643893423 -8.49959973491131 44.22810892689692 1.822174245583548 -1.5674552009144664 45.486610867167684 3.933694872703174e-10 3.1805546814635168e-15 -4.874754472204794e-12 3.577453160822794 -2.457832970340235 25.101992935088596 3.2581468041278003 -1.595592425153997 43.49792965965608 1.215836204053751e-9 -3.180554491887685e-15 -1.6036856771618462e-11 2.042371886547538 1.4434202050404268 5.455553988757008 8.013636373756503 -1.3712137792259838 35.84163187933625 6.03787035398302e-7 0.0000020090840283003914 -0.000003569371740829563 2.946343900549563 -1.9290521141027661 12.643554728136447 4.584809955555234 -1.4985153010804075 42.13899507524914 -4.3803240153668535e-10 2.0219334966109398e-23 5.2894833502657416e-12 -3.371927539371841 -12.280646015744646 8.201841829337507 -21.589596698814045 -14.909558008502977 11.105465853253394 -0.000014697651569624505 0.000004285399380492598 -0.00003094952591566483
-0.08755670487880707 -6.2351068090698245 -0.39540064334869385 0.4531829428685534 -35.61677771224744 9.952331976947903 41.4667714415611 -66.79780579363509 -27.788495885396213 91.34391418174292 80.48975125777109 89.25246965831495 -0.7194167890543385 14.976896236231354 13.83148453461729 -0.02591408921380626 -0.00007463595260828699 0.00032963137954271257 26.42378506850917 -73.05246103869757 -30.82098961224156 7.32783472270716 75.41358451565945 9.332190289693333 -6.861987229521443 15.548540766693561 -0.18976336570610208 -0.10830742499306087 -17.36478751228536 0.1584397776642567 -0.6458370861387476 11.707629112592452 -1.0328737484118133 -5.127773344092937 46.67399908256017 -6.560932998401333 0 0 0 -7.435740458526739 1.095197772374762 -16.414891860868547 -1.4303551477439933 -6.317416190329845 -52.683160606850954 -113.28704124779429 2.964567089756344 -1.2345442145681944 -21.482029972939895 75.13857535165008 -16.459202573525335 -1.2299698461781472 -6.876415642581354 -19.336185852309395 -1.592255061525568 -0.9952430809175585 -34.543043954007494 0.000003995213917131341 -4.364261971708168e-7 -0.000011205311743624915 2.6149853941277024 2.3049298209581615 -14.47843614055185 -2.025589115733856 -0.5698604553268767 -23.63421836349951 1.139979627027678e-10 6.3611093629270335e-15 -1.43444452663829e-12 4.051758773275248 -2.0491341165557015 0.41740201351987677 -5.839442236083053 -0.60455163459781 -25.40227941935321 4.171116073730225e-11 5.950788745874541e-26 -1.634838641478621e-13 5.624988451280254 -0.6608020475327578 -7.05206328853189 -2.4319650886673285 -0.3422051040678525 -22.017135628101116 0 0 0 10.312903853187427 -14.481004036981243 -16.877878611692154 0.921133981346752 10.481813621930515 33.137451567889336 0.000006459131920876966 0.000011370774681263094 0.00000778420168649405 12.620233595021288 18.206388716805716 -6.032393801233943 41.542206252747484 -14.715740791038598 -6.370225626475946 0 0 0 0 0 0 0 0 0 7.007470245160945 0.5392756763784556 -1.960389924552305 20.219140400568303 -7.768912873132308 70.51219858260141 94.01133475569176 9.443950282972036 1.0932618287937261 10.7828342658233 60.151524839251074 -26.88067719447276 -2.147017158525087 -8.499637718127222 44.230147818819475 1.828880781337991 -1.5645158411037092 45.39059873007789 3.933694872703174e-10 3.1805546814635168e-15 -4.874754472204794e-12 3.572402117114267 -2.451974975781938 25.10441390997556 3.2589577344613616 -1.596652155978558 43.51448501848835 1.215836204053751e-9 -3.180554491887685e-15 -1.6036856771618462e-11 2.044114157027462 1.4405874474706317 5.4225442803226445 8.028550181957188 -1.3809613493967159 35.9251743125622 6.03787035398302e-7 0.0000020090840283003914 -0.000003569371740829563 2.9475035032015757 -1.9295700079575002 12.639762477363941 4.585628681178109 -1.4992102971819017 42.14792151706834 -4.3803240153668535e-10 2.0219334966109398e-23 5.2894833502657416e-12 -3.372930113110041 -12.279644679918428 8.19602071070217 -21.566953824854323 -14.920144592754204 11.107908423496076 -0.000014697651569624505 0.000004285399380492598 -0.00003094952591566483
-0.07937228679656982 -6.232980115344239 -0.38362202048301697 1.0963747684066145 -35.72774352860329 8.615387516353593 40.552917747387006 -67.37559887127044 -26.604734958355305 93.375723354652 80.57965046503097 91.31157725160007 -1.0811721769733695 14.810764346902518 14.309664233003605 -0.024722541459423302 -0.00004753849142596453 0.00032533807162408925 24.574911446744423 -71.99646825944762 -29.465690477785213 -0.7971238349032918 72.73951287905467 1.4297401095291287 -6.251511812119262 14.962222188318094 -0.7766176266273132 -0.13222140674550162 -17.896829793253506 0.19091846109812996 -0.6664649079526842 11.401418291815874 -1.098810814282823 -5.258987045340237 45.43404300605843 -6.875366241186993 0 0 0 -4.792168083739125 1.2598768777271516 -16.900391301057983 -3.437447897240689 -6.088535528502249 -51.77173103444559 -111.11704031402245 2.841684519193173 -2.855900185766583 -25.529652486148798 76.90652313285997 -20.793098807598515 -1.218050841159866 -6.871433062862395 -19.265636820320374 -1.5919855576977542 -0.9954057493412288 -34.55031549195658 0.000003995213917131341 -4.364261971708168e-7 -0.000011205311743624915 2.629976529863297 2.3096917621564463 -14.433035326455784 -2.0259537368547207 -0.5700031493069846 -23.638618210235542 1.139979627027678e-10 6.3611093629270335e-15 -1.43444452663829e-12 4.063399343660258 -2.0291207283163044 0.4653808335613697 -5.833589012649581 -0.6008084304912706 -25.35877016186564 4.171116073730225e-11 5.950788745874541e-26 -1.634838641478621e-13 5.629613426046883 -0.6636502665761903 -6.963727949153435 -2.429079855657683 -0.3405184176136237 -21.98362191462888 0 0 0 10.263746657898295 -14.511090904707038 -16.887756341725705 0.9390666896511564 10.492960577912998 33.13808961636238 0.000006459131920876966 0.000011370774681263094 0.00000778420168649405 12.620188917105345 17.874476882620286 -5.699525424230766 41.23419048982702 -15.025096834631078 -6.0883288652919045 0 0 0 0 0 0 0 0 0 5.223654580497457 0.3519660237065632 -0.6750499749828285 23.600356908842326 -7.872935229164934 68.02145095512034 90.75634013992963 9.255956614842907 0.19733417158814742 9.455134079617483 60.18731406843177 -26.845150952232324 -2.1461558533683363 -8.497939699400943 44.20775196035154 1.8306099952248764 -1.5637684039417343 45.3661073131763 3.933694872703174e-10 3.1805546814635168e-15 -4.874754472204794e-12 3.5699743938137996 -2.4449259751122367 25.063240860721876 3.259318266134238 -1.5971239424240642 43.522229797500486 1.215836204053751e-9 -3.180554491887685e-15 -1.6036856771618462e-11 2.04135265270146 1.4444202915401554 5.437867428603712 8.026885675233423 -1.37988474854222 35.91587756178676 6.03787035398302e-7 0.0000020090840283003914 -0.000003569371740829563 2.94659569863899 -1.9260047657841046 12.612502858002582 4.588517604716874 -1.501665631566498 42.17901700124125 -4.3803240153668535e-10 2.0219334966109398e-23 5.2894833502657416e-12 -3.3827683944710247 -12.274832029980567 8.190621371579523 -21.56762848500541 -14.919849483111758 11.107816343504924 -0.000014697651569624505 0.000004285399380492598 -0.00003094952591566483
